<svg width="416" height="414" viewBox="0 0 416 414" fill="none" xmlns="http://www.w3.org/2000/svg">
<path d="M416 200.93C415.865 198.435 414.851 196.067 413.138 194.248C411.425 192.429 409.123 191.275 406.64 190.99L381 186.84C379.847 186.651 378.785 186.094 377.974 185.252C377.164 184.411 376.646 183.33 376.5 182.17C376.01 179.02 375.5 175.75 374.8 172.65C374.574 171.522 374.707 170.353 375.178 169.304C375.65 168.255 376.437 167.38 377.43 166.8L400.21 154.15C402.472 152.997 404.231 151.053 405.153 148.687C406.075 146.321 406.095 143.7 405.21 141.32L401.26 130.42C400.394 128.032 398.677 126.048 396.439 124.847C394.201 123.646 391.599 123.312 389.13 123.91L363.58 128.91C362.438 129.114 361.26 128.952 360.215 128.448C359.17 127.943 358.311 127.122 357.76 126.1C356.27 123.31 354.65 120.47 352.96 117.68C352.346 116.686 352.059 115.525 352.138 114.359C352.216 113.194 352.658 112.082 353.4 111.18L370.4 91.54C372.127 89.6859 373.119 87.2662 373.191 84.7335C373.262 82.2009 372.409 79.7289 370.79 77.78L363.37 68.87C361.756 66.9143 359.473 65.6272 356.965 65.2577C354.456 64.8883 351.899 65.4627 349.79 66.87L327.42 80.3C326.428 80.8942 325.272 81.1538 324.121 81.0403C322.97 80.9269 321.887 80.4464 321.03 79.67C318.56 77.5 316.03 75.41 313.66 73.48C312.75 72.7622 312.093 71.7731 311.784 70.6564C311.475 69.5397 311.529 68.3535 311.94 67.27L321.2 42.87C322.208 40.5418 322.327 37.9244 321.532 35.5148C320.737 33.1053 319.086 31.0716 316.89 29.8L306.8 23.91C304.603 22.6431 302.016 22.2312 299.534 22.7534C297.052 23.2756 294.85 24.6951 293.35 26.74L277 47.28C276.412 48.1727 275.531 48.8328 274.509 49.1467C273.487 49.4606 272.388 49.4087 271.4 49C270.79 48.75 265.63 46.64 261.62 45.3C260.52 44.9415 259.564 44.2405 258.891 43.2994C258.218 42.3584 257.864 41.2267 257.88 40.07L258.27 14C258.409 11.4544 257.616 8.94528 256.038 6.94255C254.461 4.93982 252.207 3.58079 249.7 3.11997L238.25 1.11997C235.755 0.688979 233.189 1.17832 231.028 2.49707C228.867 3.81582 227.258 5.87429 226.5 8.28997L218 33.1C217.614 34.2013 216.885 35.15 215.921 35.8069C214.956 36.4638 213.806 36.7943 212.64 36.75H202.89C201.733 36.7737 200.598 36.4318 199.646 35.7729C198.694 35.1139 197.975 34.1716 197.59 33.08L189.13 8.40997C188.386 5.97665 186.78 3.8981 184.613 2.56355C182.447 1.22901 179.868 0.729995 177.36 1.15997L165.89 3.15997C163.399 3.61716 161.158 4.96287 159.583 6.94726C158.009 8.93165 157.208 11.4199 157.33 13.95L157.73 40.11C157.738 41.2841 157.367 42.4294 156.671 43.3754C155.975 44.3214 154.993 45.0174 153.87 45.36C151.58 46.25 146.61 48.15 144.35 48.99C142.35 49.71 140.17 48.92 138.41 46.89L122.15 26.89C120.658 24.8326 118.458 23.3994 115.974 22.8659C113.489 22.3324 110.895 22.7363 108.69 24L98.63 29.83C96.4104 31.1039 94.7409 33.1544 93.9432 35.5861C93.1455 38.0179 93.2762 40.6588 94.31 43L103.56 67.34C103.964 68.4258 104.017 69.6108 103.712 70.7283C103.407 71.8458 102.759 72.8396 101.86 73.57C99.43 75.57 96.94 77.57 94.46 79.79C93.6084 80.5604 92.5327 81.0381 91.3901 81.1532C90.2476 81.2684 89.0982 81.0149 88.11 80.43L66 66.74C63.8769 65.3589 61.3229 64.8001 58.8171 65.1684C56.3113 65.5366 54.026 66.8066 52.39 68.74L45 77.63C43.3585 79.5656 42.4886 82.0387 42.5568 84.5757C42.6251 87.1127 43.6268 89.5354 45.37 91.38L62.45 111C63.208 111.884 63.661 112.989 63.7421 114.151C63.8231 115.312 63.5279 116.469 62.9 117.45C61.19 120.17 59.56 123.03 58.08 125.89C57.5263 126.919 56.6611 127.746 55.6083 128.252C54.5556 128.759 53.3694 128.919 52.22 128.71L26.71 123.78C24.2401 123.184 21.6372 123.518 19.3981 124.719C17.1589 125.92 15.4402 127.903 14.57 130.29L10.57 141.17C9.68586 143.553 9.70654 146.177 10.6281 148.545C11.5496 150.914 13.308 152.862 15.57 154.02L38.35 166.67C39.3744 167.235 40.187 168.119 40.6651 169.187C41.1432 170.255 41.2607 171.449 41 172.59L40.76 173.86C40.24 176.65 39.76 179.29 39.3 182.1C39.141 183.245 38.624 184.31 37.8229 185.144C37.0218 185.977 35.9778 186.536 34.84 186.74L9.14999 190.89C6.63765 191.198 4.32348 192.411 2.63968 194.301C0.955871 196.191 0.0175617 198.629 -1.25988e-05 201.16V212.74C-0.0146534 215.281 0.914034 217.737 2.60623 219.632C4.29843 221.528 6.63374 222.728 9.15999 223L34.84 227.14C35.994 227.328 37.0561 227.884 37.8673 228.726C38.6785 229.568 39.1952 230.65 39.34 231.81C39.83 234.97 40.34 238.23 41.04 241.33C41.2655 242.458 41.1333 243.627 40.6618 244.676C40.1903 245.725 39.4031 246.6 38.41 247.18L15.64 259.85C13.378 261.003 11.6188 262.947 10.6968 265.313C9.77494 267.678 9.7547 270.3 10.64 272.68L14.64 283.58C15.5082 285.966 17.225 287.949 19.4625 289.15C21.7 290.351 24.3014 290.685 26.77 290.09L52.32 285.14C53.4626 284.933 54.6415 285.093 55.6873 285.598C56.733 286.103 57.5918 286.926 58.14 287.95C59.64 290.75 61.25 293.58 62.94 296.37C63.5567 297.363 63.846 298.525 63.7671 299.691C63.6881 300.857 63.2449 301.969 62.5 302.87L45.5 322.5C43.7528 324.34 42.7378 326.755 42.6457 329.29C42.5536 331.826 43.3908 334.308 45 336.27L52.41 345.18C54.0229 347.138 56.3054 348.426 58.8148 348.796C61.3241 349.165 63.8812 348.589 65.99 347.18L88.36 333.75C89.3518 333.156 90.5084 332.896 91.659 333.01C92.8097 333.123 93.8933 333.603 94.75 334.38C97.23 336.55 99.75 338.64 102.12 340.57C103.029 341.288 103.686 342.277 103.997 343.393C104.308 344.509 104.256 345.695 103.85 346.78L94.58 371.18C93.5716 373.508 93.4534 376.126 94.248 378.535C95.0425 380.945 96.6945 382.978 98.89 384.25L109 390.09C111.196 391.358 113.782 391.771 116.264 391.251C118.746 390.731 120.948 389.313 122.45 387.27L139 366.92C140.4 365.19 142.6 364.42 144.23 365.08C147.71 366.52 150.04 367.33 154.17 368.71C155.27 369.069 156.227 369.77 156.901 370.711C157.576 371.652 157.933 372.783 157.92 373.94L157.52 399.99C157.385 402.535 158.18 405.042 159.757 407.043C161.334 409.045 163.585 410.405 166.09 410.87L177.54 412.87C180.035 413.305 182.604 412.818 184.766 411.499C186.928 410.179 188.536 408.118 189.29 405.7L197.79 380.93C198.175 379.828 198.903 378.878 199.868 378.221C200.833 377.564 201.983 377.234 203.15 377.28H212.9C214.058 377.255 215.193 377.596 216.145 378.255C217.097 378.914 217.816 379.858 218.2 380.95L226.67 405.62C227.326 407.762 228.651 409.637 230.451 410.97C232.251 412.304 234.43 413.026 236.67 413.03C237.267 413.031 237.863 412.978 238.45 412.87L249.92 410.87C252.411 410.413 254.652 409.067 256.227 407.083C257.801 405.098 258.602 402.61 258.48 400.08L258.08 373.92C258.072 372.767 258.431 371.642 259.106 370.707C259.78 369.773 260.734 369.077 261.83 368.72C265.67 367.43 268.37 366.39 270.74 365.47L271.34 365.24C274.44 364.17 275.94 365.47 276.81 366.55L293.56 387.18C295.061 389.221 297.262 390.636 299.741 391.157C302.221 391.677 304.805 391.265 307 390L317.07 384.17C319.273 382.898 320.93 380.859 321.725 378.442C322.52 376.026 322.397 373.402 321.38 371.07L312.14 346.73C311.732 345.646 311.676 344.46 311.979 343.342C312.283 342.224 312.93 341.23 313.83 340.5C316.26 338.5 318.75 336.5 321.23 334.28C322.087 333.507 323.169 333.03 324.318 332.918C325.466 332.807 326.62 333.067 327.61 333.66L350 347.06C352.122 348.443 354.677 349.003 357.183 348.635C359.69 348.267 361.975 346.995 363.61 345.06L371.01 336.16C372.652 334.224 373.521 331.751 373.453 329.214C373.385 326.677 372.383 324.255 370.64 322.41L353.58 302.74C352.822 301.856 352.369 300.751 352.288 299.589C352.207 298.428 352.502 297.271 353.13 296.29C354.84 293.58 356.47 290.72 357.95 287.85C358.506 286.823 359.372 285.998 360.424 285.492C361.476 284.985 362.661 284.824 363.81 285.03L389.29 290C391.76 290.596 394.363 290.262 396.602 289.061C398.841 287.86 400.56 285.877 401.43 283.49L405.38 272.61C406.264 270.229 406.243 267.606 405.321 265.239C404.399 262.873 402.641 260.927 400.38 259.77L377.58 247.1C376.57 246.529 375.771 245.648 375.3 244.587C374.83 243.526 374.714 242.342 374.97 241.21L375.21 239.94C375.73 237.15 376.21 234.51 376.67 231.7C376.829 230.555 377.346 229.49 378.147 228.656C378.948 227.823 379.992 227.264 381.13 227.06L406.82 222.92C409.339 222.616 411.66 221.405 413.35 219.512C415.04 217.62 415.982 215.177 416 212.64V200.93ZM133.55 294.93C132.304 297.097 130.561 298.937 128.466 300.3C126.37 301.662 123.981 302.508 121.495 302.768C119.008 303.027 116.496 302.693 114.164 301.793C111.832 300.893 109.747 299.453 108.08 297.59C85.5514 272.68 73.1123 240.27 73.19 206.684C73.2676 173.098 85.8565 140.745 108.5 115.94C110.176 114.078 112.27 112.641 114.61 111.747C116.95 110.853 119.469 110.528 121.959 110.799C124.449 111.069 126.84 111.928 128.933 113.303C131.026 114.678 132.763 116.532 134 118.71L179.65 199.06C181.021 201.456 181.742 204.169 181.742 206.93C181.742 209.691 181.021 212.404 179.65 214.8L133.55 294.93ZM208 342.11C198.484 342.112 188.994 341.107 179.69 339.11C177.266 338.568 175.004 337.464 173.087 335.885C171.17 334.306 169.651 332.298 168.655 330.022C167.659 327.747 167.212 325.27 167.352 322.79C167.492 320.31 168.214 317.899 169.46 315.75L215.46 235.75C216.844 233.339 218.839 231.337 221.244 229.944C223.65 228.552 226.381 227.819 229.16 227.82H321.3C323.782 227.816 326.23 228.397 328.446 229.516C330.661 230.634 332.582 232.259 334.053 234.258C335.523 236.258 336.502 238.576 336.91 241.024C337.318 243.472 337.143 245.982 336.4 248.35C318.91 302.67 268 342.11 208 342.11ZM215.51 178.21L170 98.07C168.767 95.918 168.057 93.506 167.928 91.0289C167.799 88.5519 168.255 86.0793 169.259 83.8111C170.263 81.5429 171.786 79.5426 173.706 77.972C175.626 76.4014 177.888 75.3045 180.31 74.77C189.415 72.8512 198.695 71.886 208 71.89C268 71.89 318.91 111.33 336.37 165.68C337.113 168.048 337.288 170.558 336.88 173.006C336.472 175.454 335.493 177.772 334.023 179.772C332.552 181.771 330.631 183.396 328.416 184.514C326.2 185.633 323.752 186.214 321.27 186.21H229.27C226.473 186.216 223.725 185.478 221.307 184.072C218.89 182.666 216.889 180.643 215.51 178.21Z" fill="#E8E8E8"/>
</svg>
