<svg width="33" height="33" viewBox="0 0 33 33" fill="none" xmlns="http://www.w3.org/2000/svg">
<path fill-rule="evenodd" clip-rule="evenodd" d="M17.472 21.5971C17.2142 21.8548 16.8645 21.9997 16.4999 21.9997C16.1353 21.9997 15.7856 21.8548 15.5278 21.5971L7.74942 13.8187C7.6181 13.6919 7.51335 13.5401 7.44128 13.3724C7.36922 13.2046 7.33129 13.0242 7.3297 12.8416C7.32812 12.6591 7.36291 12.478 7.43204 12.309C7.50118 12.14 7.60328 11.9865 7.73238 11.8574C7.86148 11.7283 8.015 11.6262 8.18399 11.5571C8.35297 11.4879 8.53403 11.4531 8.7166 11.4547C8.89917 11.4563 9.0796 11.4942 9.24735 11.5663C9.41511 11.6384 9.56683 11.7431 9.69367 11.8744L16.4999 18.6807L23.3062 11.8744C23.5655 11.624 23.9128 11.4854 24.2733 11.4885C24.6339 11.4917 24.9787 11.6363 25.2337 11.8912C25.4886 12.1461 25.6332 12.491 25.6363 12.8515C25.6395 13.212 25.5009 13.5594 25.2504 13.8187L17.472 21.5971Z" fill="white"/>
</svg>
